/* XPM */
static char *a9d7b852ba074c38db7778b773304785YacoUuMzEidDv2aV[] = {
/* columns rows colors chars-per-pixel */
"50 50 38 1 ",
"  c #050205",
". c #090306",
"X c #040308",
"o c #070208",
"O c #060308",
"+ c #050409",
"@ c #060408",
"# c #070508",
"$ c #090008",
"% c #0B0108",
"& c #080208",
"* c #0C0209",
"= c #090409",
"- c #080608",
"; c #080609",
": c #090709",
"> c #0B0708",
", c #0E0409",
"< c #0A070C",
"1 c #0C050C",
"2 c #0E0808",
"3 c #0E0D0B",
"4 c #0A0A0C",
"5 c #0E090D",
"6 c #10070C",
"7 c #160A0A",
"8 c #14090E",
"9 c #040613",
"0 c #0C0C12",
"q c #100B12",
"w c #171310",
"e c #181512",
"r c #1C101C",
"t c #13181B",
"y c #081720",
"u c #091A20",
"i c #11192D",
"p c #313E45",
/* pixels */
"$o4$=$ $$.,. ... o$ ..$.$@ = $==. o@..@$@=.o.$oo.$",
"o$$,@= ....   $. @ =oo=$o= @  ..= $..$$*$.@$..o.*.",
"$.$$= =....o$,o @$  o =.$o.==@$=o = .@$@@$$$ioo $.",
"$==,$$ . $o ..oo @$ =$@  @ @oo=$@ o@ .@, @,=o$o3*.",
"oo .$ $@$. o:@   o:o@@,   $.o.o o @.  @o=.@ $@.o$.",
"o.$ .@.o. .@=  ; @.@o .   =@ .    ,$o =o@. ...yo,,",
"$ .  @ $$@.@.. @p .  @.@o    ,@oo@.o@.@@ o  $3 =.o",
"@.5=$ . @..@     @@ @.@@..@  X     @..@@oo o ,$o .",
".=@@ o6@o@@=X@.;  ; .. .@@@@@ o  o@@o @$ @.@3@.@.8",
"$ =.      @@ ;      .;  @.0  o X@  @. o@..o@o@t.@@",
"@=:=@  @@@  X @.@;@ .X.    @@@X   X@ @.@.@o o @@@@",
"o@=.@o@@ @@   @  X . .  ..  @rX @X@@@@.@@ o@@o=@:@",
"@o@oo@    X@@.@@ @; X. .@:   ,7X@.@ 3@XX@@  @. :=@",
"o .= o$@@  @  @@ ;;;X@X@@@ .@ X@...@. @@@@.=@@@@$@",
"o@.oo  @ @@@@  @    .  @. @.@X. .@ X.  Xo.o @..  @",
" 1.5@@@.@ .   @   ; :@ @= X@ .@.@@@ @    .  @@@@@.",
" ;@..@@@;; ;@X:@ 3@      ;@@; .   ;XXX  XX.X@.@.@@",
". ..@@  @    uX;;;@ ;;3  ;@0@.X ;    @; ;  ;@@@@@ ",
".@@. . ;@.@ ;@   ;   X4  ;X ;;@. #; ;@@.  ;@@@@@. ",
"@.@ X@XX@@.;@. . X XX;X; @ . @ ;;. ;> @ @@;;..=@@@",
"@.@ 9@@.@ X; @ .;@;     ;  ; @   # . @ . iX@@@@=.@",
"@X  @X @....:..@; ;;;  #;   ;  ;. # @:@.,..@;.:@ .",
" ;@@3X .. #:;:;@  @     ;   X@@ #. = @@..@...@@:=.",
" .@; .@@.@ @ >   ;; ; ;   @;  ; ###@  X3@.@@;@ =@@",
"@ .  ;  ;;;  : .@:@3;  . ;#  .#..## #  ..@@@@. @@.",
";;..@@ @. .  3;... :; ;@## .##  # # ##;@..@.:@; .:",
"  @@ @. .;@@;  7 @  .;;;.# #.. .##.#3X  ...3:..= .",
"  @.; ;@ .  @;.:.@  :  ;# ##.##  # # . ....@. .3..",
". ..   ;:.@.    @.  ....#..># . ######; =  .3 @@@ ",
"@ ;: e; e;....:   ;   ;.....## 3#  #..#; :.; . ...",
".   .:; ...@       @.3.#. #.##..##.#. ;.; . @..@.@",
". ..  ##  .            #  .#. ##  #. #...;@;:@ .: ",
"   ; @. @               o.@... ...@:>  :;@; ;.. : ",
";  ;                   . @...;;3 .:@;.3...@@.. ;..",
"                        .@.. .. ....; ....  .;;#.@",
".                        =.@@;:.. ..;.;      .; .$",
"                          @..@  .. . ;;; : @  3.,.",
"                          @  .; ;..  .: . @.  ;  .",
"                            .. .   ;..@ .;. ...@..",
"                           ..; @; ;;..; @..:..  . ",
"                                        .         ",
"                                                  ",
"                                                  ",
"                  .                               ",
"   .    .  .      .   .                    .      ",
"  . .             .                               ",
"    .    ..      .. ...                           ",
"   .... .          .                              ",
". .    .   o  .   ..    . .         .       @  .= ",
"... . o =$     ...=$        .  .              .   "
};
