/* XPM */
static char *_55f3222e1ce475fb70ba0302c97b661HErPGzwGqWhuLof9[] = {
/* columns rows colors chars-per-pixel */
"50 50 249 2 ",
"   c #1A0802",
".  c #1E1207",
"X  c #240D03",
"o  c #2A0E04",
"O  c #251205",
"+  c #2B1205",
"@  c #25140A",
"#  c #2B150A",
"$  c #291A08",
"%  c #2D190B",
"&  c #321405",
"*  c #361807",
"=  c #341C0D",
"-  c #3A1D0C",
";  c #2B1A12",
":  c #331D12",
">  c #341A15",
",  c #3C1F12",
"<  c #3B210F",
"1  c #372317",
"2  c #3C2213",
"3  c #3C241A",
"4  c #3B2B22",
"5  c #451B09",
"6  c #581D05",
"7  c #481E14",
"8  c #651B04",
"9  c #711E01",
"0  c #4B240C",
"q  c #5B270C",
"w  c #432515",
"e  c #492816",
"r  c #41271A",
"t  c #442A1B",
"y  c #4C2D1D",
"u  c #5A2B15",
"i  c #522D1B",
"p  c #4C311F",
"a  c #53321D",
"s  c #5D311C",
"d  c #672608",
"f  c #772B08",
"g  c #702E0D",
"h  c #6A2C14",
"j  c #68341C",
"k  c #783516",
"l  c #4A2E23",
"z  c #532C22",
"x  c #4D3322",
"c  c #48352C",
"v  c #533424",
"b  c #583824",
"n  c #543A2B",
"m  c #5B3C2B",
"M  c #583D31",
"N  c #673C28",
"B  c #753A24",
"V  c #633E31",
"C  c #5D412E",
"Z  c #66432E",
"A  c #7A442A",
"S  c #634333",
"D  c #6B4937",
"F  c #764D39",
"G  c #6C503D",
"H  c #7A523A",
"J  c #664B42",
"K  c #7C5846",
"L  c #822B08",
"P  c #88340B",
"I  c #943908",
"U  c #883916",
"Y  c #843A1B",
"T  c #943C16",
"R  c #9C3B15",
"E  c #913E1B",
"W  c #A43E0F",
"Q  c #853D23",
"!  c #8C3F24",
"~  c #994208",
"^  c #87421B",
"/  c #9B4416",
"(  c #92421C",
")  c #9B451C",
"_  c #99491A",
"`  c #A54509",
"'  c #B24B07",
"]  c #A84617",
"[  c #A44B1C",
"{  c #AB4C1B",
"}  c #B54B1A",
"|  c #A85119",
" . c #B4541C",
".. c #B9581B",
"X. c #8C4224",
"o. c #874829",
"O. c #934522",
"+. c #964727",
"@. c #9C4423",
"#. c #9D4A23",
"$. c #934C2C",
"%. c #9C4C2B",
"&. c #9A5429",
"*. c #9D532C",
"=. c #844B34",
"-. c #8C4B33",
";. c #984D34",
":. c #88533D",
">. c #9C5333",
",. c #9A5737",
"<. c #95543A",
"1. c #A54524",
"2. c #A44B24",
"3. c #AB4B23",
"4. c #A34C2A",
"5. c #AB4E2B",
"6. c #B24B23",
"7. c #B44E2A",
"8. c #A45225",
"9. c #AC5224",
"0. c #A85B25",
"q. c #A5532B",
"w. c #AC532C",
"e. c #AD5A2E",
"r. c #B35424",
"t. c #BC5423",
"y. c #B35926",
"u. c #BA5C24",
"i. c #B3542C",
"p. c #BA552B",
"a. c #B45B2B",
"s. c #BB5B2C",
"d. c #A54D33",
"f. c #B14D31",
"g. c #A45433",
"h. c #AC5433",
"j. c #AC5B33",
"k. c #A65939",
"l. c #AB5C3C",
"z. c #B45433",
"x. c #B45C33",
"c. c #BC5D32",
"v. c #BA5937",
"b. c #B35D3A",
"n. c #9E613A",
"m. c #B76327",
"M. c #BD632D",
"N. c #AE6233",
"B. c #A8633C",
"V. c #B46134",
"C. c #BC6334",
"Z. c #B26A31",
"A. c #BD6A34",
"S. c #B5623C",
"D. c #BC643B",
"F. c #B46C3A",
"G. c #BE6C3C",
"H. c #C25B1A",
"J. c #C8631C",
"K. c #D56F1E",
"L. c #C45827",
"P. c #C35C24",
"I. c #C45C2B",
"U. c #D05F25",
"Y. c #C25D33",
"T. c #C46325",
"R. c #CC6524",
"E. c #C4632B",
"W. c #CB642B",
"Q. c #C66A2A",
"!. c #CC6A2D",
"~. c #D56A28",
"^. c #CC732D",
"/. c #D4722B",
"(. c #D87429",
"). c #C46433",
"_. c #CC6333",
"`. c #C46A34",
"'. c #CC6B33",
"]. c #C3653B",
"[. c #CB673B",
"{. c #C56A3C",
"}. c #CB6B3B",
"|. c #D36B33",
" X c #DA6B34",
".X c #D26B3A",
"XX c #CD733B",
"oX c #CB7438",
"OX c #D37335",
"+X c #D87836",
"@X c #D3743B",
"#X c #E87F2A",
"$X c #E27A3B",
"%X c #8B5B48",
"&X c #9B5C42",
"*X c #A45D43",
"=X c #B85D41",
"-X c #8C654D",
";X c #9B6248",
":X c #AB6747",
">X c #BB6641",
",X c #B76A44",
"<X c #B2694B",
"1X c #BA6B4A",
"2X c #AE714F",
"3X c #B97349",
"4X c #AA6A51",
"5X c #B87855",
"6X c #B97E60",
"7X c #C36C43",
"8X c #C76A45",
"9X c #C67645",
"0X c #CD7343",
"qX c #CC7A45",
"wX c #C4724A",
"eX c #CB744B",
"rX c #CB7A4B",
"tX c #D57D42",
"yX c #D77846",
"uX c #C77954",
"iX c #D27A51",
"pX c #DB813C",
"aX c #E88C3E",
"sX c #BD8159",
"dX c #CA824C",
"fX c #D98548",
"gX c #CD8659",
"hX c #D78856",
"jX c #DA9752",
"kX c #E48747",
"lX c #E58A54",
"zX c #E6975B",
"xX c #F29554",
"cX c #CB8B68",
"vX c #D78962",
"bX c #D99369",
"nX c #CD9C7D",
"mX c #D69675",
"MX c #E99466",
"NX c #E79B69",
"BX c #E59E74",
"VX c #CFA07C",
"CX c #E8A46B",
"ZX c #EDA672",
"AX c #BB9486",
"SX c #DCA783",
"DX c #E6B08B",
"FX c #E5BDAE",
"GX c #FBEBDE",
/* pixels */
"b +X..] L.!.D ] i.L.1.W.S i.;.<.,.o.G @XY.d.h.kXF yXY h.h.{.a ~.1.z.6.Y.J k.;.;.&X4.z [.,.z.h [.x '.",
"V !.` t.] |.J .X} } } W.-XR.{ b -.[ F [._.o.h.$XK Y.0Xh.q.1XS s.Y.0X[.h.%X:.! l.d.f.F s.i..Xu.'.S $.",
"b Y.yXyX_..X%X}. .q p.@Xv s.s.<.h.8.D h.h.;.w.c.V yX8Xf.E [.M Y.0Xl.f.7XD d.;.].[.k.M v.a.{.Y _.n N.",
") W.6./.[.h.Y c.+XdXhXfXF.gX9Xp c.2.*Xk.+.k L.8X! f..Xg.I.g.l.s.c./ h.`.+.l.].i a.k.wXB ;.i %X%X>X%.",
"@Xt.).fX2.j.Y x.OX/ `.rXzX`.CXj k yXeXg.g.k p.h.h.p.|.8.].$.1Xx.X.] U c.Y C.i.s c.c.P s.j.N &Xk.k.h.",
"9.W.W  ._.u.].9.W.T fXr.F.xXjXj c.wX>Xb.s.] .X4.5.f.(.{ ].C.hXOXL.` +XW.9.]..XU U Q.C.C.#.h s F Q <.",
"3 1.).7X8Xz.2 b.! Y +.f n e.q.j.5.g.b uX8Xo.( Q y { ( d.{.i.D 7.z.f.h.z.Z `.<.U +.B w 0XV.o.A >.y ! ",
"y !.$X$X]..X, i.6.L L.#.v Q.c.C.@X{.y k.:Xh =.N m OXY.b.i.i.N yXD.%.b.>Xv q.>.;.9Xr.b W.X.-.<.+.F @.",
"- kXkXH...R., } h L U 1.l I.@XeX'.v.i %.s :.-.H l r.5.h.B [ x D.d.O.SX..m a.V.8 { d v ` 8.u $.8.D l.",
"t > > , @ % 4 @ # % # % & 7 , t 4 c z 4 l O c 4 J c 4 r 3 1 v @ > # @ > x : > t r % n ; 2 3 < 2 m t ",
"+Xm.!.v eX{.x.D.0X3 L.Q t.w.[ t z.].c.s.2.r E 3.#.E W.n D.gX2.c.$XN B -.H u F t 8X+.c.`.a.y n.S.k.g.",
"0.a.!.w iXhX8XD.qX7 L.5.h.| R.7 p.I.`.P a.2 4.U f.k !.x D.k.OXp._.b -XH %X;.:X, >Xh.%.oX0Xs F.V.8.X.",
"* % + b % # & + O l X O @ O @ w + @ @ @ # b @ # # < , %X% * % < = v 1 = = ; > N , = 2 = < a 2 - 2 = ",
"E fX(.eX3.(.W.iXXX@XpXfXD.u.I.eX[  XP.OXp.3.I.I.+XR.E.@X| U.E.E.] U 7X0X] #.g.@.M.e.@.E.q.d.q.).6 p.",
"4. X~.u.A P.kXyX@XL.+XyXb.tXD.h.k p._.OX@.p.!.v.J.R.6.R 5.k  .r._.8.H.{ J.e.vXH.XX9.%.'.4.U b.E.X.5.",
"X + o o + # + & O + @ + $ + + o + O @ @ #   & 5 , X * -.B q e * & & + * * w + * u 5 5 i B * q s - A ",
"] }. X6  .@XE.@XyX2 uX>.o.sX2X2 XX[ 0X{.@Xr ! { @.z.t.r *XvXvXv.5X3 ] W 8 P 3.t i.I.8 r.@.S *.o.A k ",
"R U.OXq OX@XR }..Xl ,XU 8X1X4Xy a.).].yX@Xy I.b.i.6.5.w 5.wXD.S.wXx H.h.h.I.{ 3 P.H.8.x.Y N o.>.o.A ",
" .] .X& |.Q.XXf.b.e B ! OX&X:.t E 7XP.XX| y 4.@X0X@XE l b.eXY.wXD.C 2.w.1.p.E t i.I.u.s.z.m B.$.n.o.",
"5X*.nXnXuXnX] hXrXbX<X2Xh.0X>XD.u.^.N.u.Y Y w.@.g 2.U %.O.f 5 M.b.q.N.A.d 3.4.j.w.T.0 w.j.1Xk.#.q 2X",
"<XmXbXmXx.rX3XdXh.V.,X:X,.jXyXxXNX@X_ q.| 7Xw.7.d E D.4.,X1Xe ].E.2.| | u 3.vX) ] E.z q.g B.&.$.s <.",
"V.NXbXDXZXSXcXlXfX3X1X3XB.H.Q.).hXeXy.0XD.>Xb.i.d P e.*.+.w.e 5.^.u.] ( i yXY.I.a.Y.V 8X#.+.V.1.A 2X",
"cXS.uX= a.u.zXM.A.# dX{ CXCXQ.w `.#.fXxX+X< ) `.p.0Xw.t ].~ %.2.2.2 V.{ [ 8.7X2 ..] o.E y.w 8.w.&.u.",
"hXgXCXS zXk lX/.'.2 +XxXaX(.7Xy Q.[ ' lX~ x G.3Xa.y.x.= oX/ 1.9.A.Z '.0.s.I.[.Z (.( $.4.T.m 5.L Q.^.",
"oX3XrXM fXfXNXlXA.b +XQ.` T.E.e | oX..+XlXs V.M.u.s.S.v `.C.w.C.{ m ).P.4.@XY.N H.m.$.+...c i.c.a.OX",
"a VXnXgXFXGX%XDXrXfXbX'.C M.hXfXdX3X< 5XuXgX=.* y 3Xa.qXA.`.1 5X3XA.2XV = -.1XF.4.( = 2X;XN uXF . F ",
"%XsXsXA.5XcXG x.A.wXc.W.z |.+XyX| `.t w.C.jXd 3.s fX[.fXO.f x 3X:Xo.fX>Xy D.7X1X3X:Xv / V.x.W.` 5 o.",
"-XzX9XjXF.*.H A.@Xa.].`.n pX!.a.p.x.< g.k D.qX/ v M.z.D.y._ n 2X2Xq.qX^ a D.hXk.wX$.b Y.K.c.'.T.e 1X",
"b X % t . % i , 2 1 = 2 G < $ 1 # < D : = O t l -Xm p w 3 p D % : v % 1 v ; # : r 3 s p w b m x Z n ",
"@XI fX3 A.@.).p.oXx yX{.G.( OXt !.K.h R.J.^ /.pXoX$Xv.$.S.S.k.,X,./ *.x.r.Y.^.~ +XMXN.pXp.{ Q.0XI I.",
"' f P.3 L.r.T.U @Xn A.a.Z.A.oXA (.J.C.(.OXA gXs.{.`.f o.>.S.o.k <XI C.w.s.x.A.4.A.yXV.C._.x.fXr.z.M.",
"% = * m = * = , < p + O @ O $ s @ % @ < = m < < % < = b 2 % = * = 2 # % # % < i = < - # - 2 # % & % ",
"N P.p._./. X< !.aXfXe.3X2 i.3X..7X_.2 BXM...oX'.r /.V.y.E.fX2 #.V.rXpXdXh _ w.=X1.3.W }.*.4X^ !.` @.",
"j .X6 x.].E.1 [ { ' a.gXy / H.T } i.y m.hXpXpXOXx m.( m.x.M.2 y.gXm.0.qXq w.2.3.s.] R ~.r.O.u.W.u.E.",
"* o &   @ 5 M 5 X + + j w + X 0 @ X v # $ $ & . b % * = * * S > & * + $ < B & $ $ $ $ y + 5 q 3Xq 0 ",
"h.R 7.3  Xh.X.W.R.t g.( e.3XgX< B.fXU R.aXt C.2.8.{.x.d 7XA.:X9.)._ _ dX8.*.o.sX3XgXj.a.e.J.p.z.=X9 ",
"2.1.d.l W.).4.R. X# 9XgXF.&.V.b G.8.eXdX/.x A.@XdXrX:Xg XXhXhXbXrX#.A.m.9.%.N.( $.e.g.P.p.[ u e.8 %.",
"f.h.Y.x  .8XkX ._ t dXcXBX0.gXl J.9XBXhXjXm 1X0... .I X.S.CX5X&.m.o.m.lX&.y.e.*.B.| yXa.`.a.c.1.1.1.",
"6.5.9.+.L.t.` J.r.R '.E.h B t.9X{.'.0 +Xp.,Xx.xX3 I 8.%.).V.t t.+Xf kXH.x &.q.*.w.pX, s.p.uXR { - 4.",
"I. X.XP.uXA.' q.I.t.s.m._ 1X_.x.C.C.( kXD.Z.m.+Xt ] e.B.*.fXv |.ZX).E.R.1  .4.*.0.zXw B.z.iX6.h.d >.",
"I.[ I } P 5.6.f p.[ d c.gXC.I.%.9.R.g./.M...tXjXv @XiX&.+.r.V zXI.OX!.T.l P 1.L oXA.z 4XwXuXY.*Xf 3.",
"r.OXP.l ] q E R ] 3 P T.{ 3.p.i { 6.+.U.#Xj ].1XD.C.T.L H.!.V.~.u.L.P { c.3.3.p.7.1.z.f.5.l.p.@.h.eX",
"k [.+Xn 5.X.1.k 8 t p.1.3.xXv.x L.] *XR { N 1.8 q.oXkX/ iX>X].D.o.H.i.g r.T } s. .eX8X,X,XE @.d.5.uX",
"XXD.0X3 S.:Xp.g eXv w.) L.0X[.M ] P.1.l.{ B f M.w.bXfX( gXwXu.o.eXR.h.^ uX<XU q.z.eXf.=Xv.i.=Xh.<X>X",
"! u.Q bX4.|.I 1.;.k.X.h.i d U Q ! [ t 8XE 8X5.v.2 `.:X1XrXk x `.MX5Xk uXb *XL.vX7XhXs gX3XBX3XgXB b.",
";.T.[ iXT.e.` `.h.h Y.p.u Y h +.{ ! > d.>XwXb.iXv R $.6 _ B.C ..OXS.) 1Xb 4.q.[.Q j q qXa.1X@Xp.U s.",
"j.H.1.v.p.w.W }.,Xk 9 `.N ).V.<XE f.z cX8X5 ;.l.t _ fX9.P k.C Q.M.V.8.q.e :X{.3.@.uXg XX{.o.l.>XO. .",
"CXiXmX1 *X5X9X;XcX> ! E b.eXeX$ AXuX6XgXeXz l.O.l.e.e.M :XuXdX:X:Xt 2XuXmX4X%Xy F &X:XD D < x F %XH ",
"oXQ.jXu 9.).hXlXi.n W.g.OX3.y.p w.S.T C.y.H n.;.-.4XQ.G @Xy.| M.<XZ +.<XuX3.I.Z :XS.uX2X*.C rXg.dXiX",
"g.O.{.j XX| u.W $.r '.c.eXfXQ.m ,.^ ;Xx.0X:.x.:Xo.,.{ K M.,Xg U @XG ^ o.*X<.2.D D.s.Y A.3Xm '.q.<Xi."
};
