/* XPM */
static char *_524c0871ad348a8b1a5bda9f4241171WYITt5s0XOmIQGBd[] = {
/* columns rows colors chars-per-pixel */
"30 30 84 1 ",
"  c None",
". c #9F7200",
"X c #A07100",
"o c #A07200",
"O c #A07300",
"+ c #A17400",
"@ c #A37500",
"# c #A47600",
"$ c #A57600",
"% c #A57700",
"& c #A67700",
"* c #A87900",
"= c #A97B00",
"- c #A97D00",
"; c #AB7C00",
": c #AC7D00",
"> c #AD7E00",
", c #AD7F00",
"< c #AE7F00",
"1 c #A98000",
"2 c #AF8000",
"3 c #B08200",
"4 c #B28300",
"5 c #B38400",
"6 c #B68700",
"7 c #B88900",
"8 c #B98A00",
"9 c #BA8B00",
"0 c #BC8D00",
"q c #BE8F00",
"w c #BF9000",
"e c #BD9D00",
"r c #C19200",
"t c #C79800",
"y c #C89900",
"u c #CA9B00",
"i c #CC9C00",
"p c #C5A400",
"a c #C7A400",
"s c #D2A200",
"d c #D3A300",
"f c #D3A400",
"g c #D5A500",
"h c #D9A900",
"j c #DAAA00",
"k c #DCAC00",
"l c #DDAD00",
"z c #D5BF00",
"x c #DEBD00",
"c c #E1B100",
"v c #E2B200",
"b c #E8B700",
"n c #E9B900",
"m c #ECBC00",
"M c #EDBD00",
"N c #EEBE00",
"B c #D9C100",
"V c #E9C800",
"C c #EAC800",
"Z c #EBC900",
"A c #F0C000",
"S c #F5C400",
"D c #F6C500",
"F c #FBCA00",
"G c #FBCB00",
"H c #FFCE00",
"J c #FFD500",
"K c #FAD800",
"L c #FFDD00",
"P c #FFDE00",
"I c #ECE300",
"U c #FFE600",
"Y c #FFEC00",
"T c #FFEE00",
"R c #FFF200",
"E c #F9F700",
"W c #FFF500",
"Q c #FFF600",
"! c #FFFD00",
"~ c #FFFE00",
"^ c yellow",
"/ c #FFFFC1",
"( c #FFFEF9",
") c white",
/* pixels */
"           pPPPLHH:           ",
"        -PLPPYULPHHHH+        ",
"       LPW))RLLLPHYHHHm       ",
"     pPL)(PVeeeeeXvHHHmm2     ",
"    CK!LPeePL~~~~~HXXHFmmm    ",
"   3C~LLePW))~~PPHHHJXvgmm=   ",
"   vPPxeL))~PPP~BHHHHH+wgmm   ",
"  vvHPeP~~~PPP~H$HHHHHm.ggmg  ",
" XvvHeP~~PPPL/HH&HHHHHmmXggg+ ",
" ghH.H~~PPPPEHHH&HHHHHmmg+ggd ",
" gdh.~~HLLL-hHHH&HHHHmmmmX6gu ",
"9gg-H~JHHHXh$~HF&HHHDmmmmg:gu:",
"gggXH~HHH$hhH~HF&HHmmmmmmg+4uu",
"g6g+IJHHHHHHH)HD&HmmmmmmmmX4uu",
"g6iXImHHHHHHH~HA&mmmmmmmmlX4uu",
"g66XBmmmmmmmm~Hb&mmmmmmmll+4uu",
"g86Xgmmmmmmmm~Hh&mmmmmmllu.4uu",
"uf6Xggmmmmmmm~Hh&mmmmlllluX4uu",
"4u4:ggmmmmmmm~Hh&mmnllllgu-4u:",
" u44+ggmmmmmm~Hh&llllllliX34u ",
" u04.uuummmmm~Hh&lllllluu+4ru ",
" +u44Xuuuulll~Hh&lllluuuX44uX ",
"  u644Xuuuuuu~Hh&iuuuuuX44wu  ",
"   u44-+uuuuu~Hh&uuuuuX:44u   ",
"   +u335XuuuuJh*=uuuuX444u&   ",
"    uu535XXuuuuuuuu.X444ut    ",
"     &u44442XX+XXX23444u$     ",
"       uu4444444444448u       ",
"         uu54444444uu         ",
"           Xuuuuuu+           "
};
