/* XPM */
static char *_fa4acb40a2840e6e6d8cb79230edc1ba3SNHoFziczr2eHG[] = {
/* columns rows colors chars-per-pixel */
"61 50 142 2 ",
"   c None",
".  c #1B1514",
"X  c #1A1816",
"o  c #1E1A1A",
"O  c #25130D",
"+  c #29150B",
"@  c #341407",
"#  c #351609",
"$  c #391708",
"%  c #371809",
"&  c #3C190B",
"*  c #251510",
"=  c #291710",
"-  c #2B1B16",
";  c #231C1C",
":  c #2B1D1A",
">  c #331C13",
",  c #3C1D12",
"<  c #311E19",
"1  c #23211E",
"2  c #372017",
"3  c #3B2117",
"4  c #34201A",
"5  c #3E251C",
"6  c #3E291E",
"7  c #222322",
"8  c #282622",
"9  c #252A29",
"0  c #2D2D2B",
"q  c #37312B",
"w  c #3B322A",
"e  c #451C0B",
"r  c #4B1E0C",
"t  c #501F0C",
"y  c #421E10",
"u  c #4E210D",
"i  c #53220D",
"p  c #5B250E",
"a  c #452215",
"s  c #4D2313",
"d  c #47281A",
"f  c #532411",
"g  c #5C2610",
"h  c #5D2812",
"j  c #62270E",
"k  c #65280F",
"l  c #6A2A0F",
"z  c #702C0F",
"x  c #602710",
"c  c #642A12",
"v  c #6C2C12",
"b  c #742E11",
"n  c #752E11",
"m  c #762F11",
"M  c #752E12",
"N  c #742E13",
"B  c #762F12",
"V  c #772F12",
"C  c #732E11",
"Z  c #7A2F12",
"A  c #782F13",
"S  c #6B3117",
"D  c #6E3016",
"F  c #6F3117",
"G  c #6D3017",
"H  c #673018",
"J  c #6E3218",
"K  c #6F3319",
"L  c #713116",
"P  c #763114",
"I  c #763316",
"U  c #753115",
"Y  c #793011",
"T  c #7A3011",
"R  c #7A3111",
"E  c #7B3111",
"W  c #783113",
"Q  c #7A3012",
"!  c #7B3112",
"~  c #7A3113",
"^  c #7C3011",
"/  c #7C3112",
"(  c #7D3112",
")  c #7D3113",
"_  c #7D3212",
"`  c #7A3315",
"'  c #7E3314",
"]  c #793417",
"[  c #7F3415",
"{  c #7B3213",
"}  c #72351A",
"|  c #74351A",
" . c #77351A",
".. c #77361B",
"X. c #743419",
"o. c #793318",
"O. c #7B3719",
"+. c #7A361B",
"@. c #7E3518",
"#. c #7A3619",
"$. c #76381F",
"%. c #79381B",
"&. c #7D391B",
"*. c #79391D",
"=. c #7A391D",
"-. c #7F3B1D",
";. c #7F391E",
":. c #7C3A1E",
">. c #7C381C",
",. c #743922",
"<. c #7E3D20",
"1. c #7D3E22",
"2. c #793B22",
"3. c #833515",
"4. c #893716",
"5. c #8D3916",
"6. c #803518",
"7. c #853919",
"8. c #84391A",
"9. c #843C1D",
"0. c #83391A",
"q. c #8B3B19",
"w. c #8B3D1C",
"e. c #8D3C1A",
"r. c #943B16",
"t. c #923F1C",
"y. c #933D1A",
"u. c #9A3F1A",
"i. c #833E21",
"p. c #9E401B",
"a. c #A2431D",
"s. c #AE481F",
"d. c #824226",
"f. c #8B4223",
"g. c #8B4324",
"h. c #86442A",
"j. c #924725",
"k. c #954726",
"l. c #9C4724",
"z. c #9C4420",
"x. c #9B4824",
"c. c #AC4D24",
/* pixels */
"x.c.                                                                                                                      ",
"  7.q.t.l.                                                                                                                ",
"    +.c v v o.9.k.                                                                                                j.w.8.<.",
"      ; : , y f g c U +.g.                                                                              d.%.I P ~ ' 6.    ",
"      ; o ; ; ; - > y r i g c U  .i.g.                                                      2.$.} H c x h g f s a         ",
"        4 : ; ; ; ; o ; - > > , r u p p c c v J  .*.<.-.            0.<.*.$.} K J c c c g p p i r y y > > : 1 ; ;         ",
"          v g f a < : ; ; o ; o ; ; - - > > , e y r r u t f f i i i i i i u r r a e , 2 > < : : ; ; 1 ; ; ; 1 ;           ",
"              v l v c g s a 2 < : ; ; ; ; o ; ; ; ; - ; - - - - - : : - : ; : ; ; ; ; o ; ; ; ; : : < 3 a d               ",
"              @.~ M C v l l k j p f s a a < 2 : : : ; ; ; ; ; ; ; ; ; : ; : : : < < 2 3 a a f h h c v v v J               ",
"                [ ' ^ ^ ^ Z M C v v l v k k j j f i s s s s s f s f f f f f g p g c k k l l l l v v v h                   ",
"                      ] ~ ] W Z W ^ ~ ~ W M z z l g i i p k v c l l l v v v l l C C C M Y Y W W ' ~ N                     ",
"                            +.M p r v [ ] ' ] ] H w q q 5 c M Z ^ Z W W ^ ' ^ 3.^ W W ' ] ~ ' [ ~ o.o.                    ",
"                              U r +               9 9 9 1 -                 K N z j i                                     ",
"                              0.p &               9 9 9 7 X                   v l u                                       ",
"                    P C P ~ P [ p f }             0 9 9 7 X                   *.C i                                       ",
"                    ' M v v k W k r k v v v U U P d 8 8 7 3  .0.            2.L W g ,.h.                                  ",
"                    P U U C v ^ k r l l v v v v k p i e a i k k c v l v l v j c Z p j v v l C l v v                       ",
"                              3.l e v N N v v v v C v c k l v v N v v v v l k v Z p j C C C z Z M J                       ",
"                              5.v &                             G G L v v v v v ^ p c C N U Y M P                         ",
"                              y.v e o o X X X                                 -.' c                                       ",
"                              y.l r = + O O                                     ^ c - X X                                 ",
"                              e.C i   f e #                                   q.' c + . .                                 ",
"                              q.v i     r &                                   y.^ v e @ ,                                 ",
"                              [ k i e   v &                                   y.W v p e                                   ",
"                              U j i x y.r %                                   7.C v C i                                   ",
"                    ; ; ; X . c v i r & @ %                                   ' l k Z p                                   ",
"                    > > - O O y.' e e e & &                                 5 h f c k u                                   ",
"                      N k u   c.t e e   r %                           ; o ; o X > j j r                                   ",
"                      7.v x u.i @ & r   r &                           < , > > > c j j r                                   ",
"                      a.Z i e % e r e   r &                             V C j 4.W i k i                                   ",
"                      z.c r % g l i e   N &                               ' l Z p t k p                                   ",
"                      o.p t     v t e 8.3.e                               r.b p t t k p                                   ",
"                      P g p     l i e C t &                               u.C p p p j j                                   ",
"                        C p     v t e $ @ $                               W j j p i j j                                   ",
"                        ~ p     5.r e e r $                               M k k i p j j                                   ",
"                        ~ c     3.$ e u c e                               Z l k i i p p                                   ",
"                        P j e.p.e @ e p z r a                             3.C C C r p p                                   ",
"                        W k c e $ e r t l r a                             3.z 5.W e p p                                   ",
"                        u.j e & U p r r H                                 3.z r.j e p p                                   ",
"                        ' i e   3.l i r                                   W l l r r p p h                                 ",
"                        c i u   e.z p r e                                 r.C p p i g h                                   ",
"                        c p f   r.Y p i e                                 a.l v z p k h                                   ",
"                        V k i   e.P c f                                   Z j C W k j c                                   ",
"                        3.l f                                             v p U W k j k                                   ",
"                        r.z p                                             v k Y ` c c c                                   ",
"                        r.M p                                             Y v S                                           ",
"                        y.W k                                           p.0.D c                                           ",
"                                                                        a.5.U v                                           ",
"                                                                        a.5.Y v                                           ",
"                                                                        z.q.U H                                           "
};
