/* XPM */
static char *_c82f96c431d4b77a35c2752a5decec1bdnFG8R3uMDpcfDQ[] = {
/* columns rows colors chars-per-pixel */
"50 50 81 1 ",
"  c None",
". c #151312",
"X c #181716",
"o c #191817",
"O c #1C1B1B",
"+ c #201F1E",
"@ c #1F211F",
"# c #232117",
"$ c #23221F",
"% c #2E2B1C",
"& c #232423",
"* c #252825",
"= c #2F2C25",
"- c #272728",
"; c #262A28",
": c #2A2B2C",
"> c #2C312D",
", c #36342C",
"< c #39362D",
"1 c #2D2F30",
"2 c #2E3232",
"3 c #323435",
"4 c #333B37",
"5 c #343738",
"6 c #36393A",
"7 c #393D3E",
"8 c #36423C",
"9 c #484628",
"0 c #4C4B2C",
"q c #4A4739",
"w c #514D3E",
"e c #6B6835",
"r c #716E35",
"t c #777538",
"y c #3B3F41",
"u c #3D4243",
"i c #3E4B45",
"p c #404547",
"a c #424749",
"s c #454A4C",
"d c #43524C",
"f c #505448",
"g c #5E5A48",
"h c #474D50",
"j c #494F51",
"k c #4C5255",
"l c #4F5659",
"z c #525751",
"x c #50575A",
"c c #525A5D",
"v c #645F4C",
"b c #66604D",
"n c #68634F",
"m c #555D61",
"M c #576064",
"N c #5A6366",
"B c #5C6569",
"V c #5F696D",
"C c #606A6E",
"Z c #636D71",
"A c #667176",
"S c #6A757A",
"D c #6D797E",
"F c #8E8B3F",
"G c #9B9846",
"H c #C2BF56",
"J c #C5C256",
"K c #E1DE62",
"L c #6F7B80",
"P c #727E84",
"I c #758187",
"U c #768389",
"Y c #78868C",
"T c #7A888E",
"R c #7D8C92",
"E c #808F96",
"W c #819097",
"Q c #85949B",
"! c #88979E",
"~ c #88989F",
"^ c #899AA1",
/* pixels */
"                                                  ",
"                                                  ",
"                                                  ",
"                                                  ",
"                                                  ",
"                                                  ",
"                                                  ",
"                                                  ",
"                                                  ",
"                                                  ",
"                         ..                       ",
"                      X-acks6&X                   ",
"                     OuNE^^^QYN3X                 ",
"                     :cBQ~~~~^^Rso                ",
"                     3sSQ^~~~~~^W7                ",
"                    OukL~~~~~~~~^s                ",
"                    &ccP^Q^~~~~~^ZO               ",
"                    &NVYZjP~^^~~^P&               ",
"                    :VZYau3sP~^QEVO               ",
"                    3CZSyUUj1ZZa3-X               ",
"                    uCZA5,CQNk7xDm                ",
"                    7mZYfF0sayaYZ6                ",
"                    3lZWzHKtO-&,9#                ",
"                    &3BQVeJt&M+GH%                ",
"                    X3NRWs,7yS&erX       X-&      ",
"                   XX-mZRQRLaIuhy;      X:maX     ",
"                  Oak&-lZR^P22a^P&      6AYZO     ",
"                  &kIs3-7NRQUBL^c      ;P^QcO     ",
"                 O7S~jxm6-hPWQUs&     OVQQUu      ",
"                 &NQR7NZZk:1hh&.      sWQEc&      ",
"                 yY^CyCZVZNs:23X     :URQV&       ",
"                OcW~slZLAZZZZSN5O   OkYWA&        ",
"                :A~WuNAWWWEERQSky   uZPC&         ",
"                7S~I6mZW~~~~^^PlN. 1YRc&          ",
"               X&hES7MAQ~~~~~^Uy73&AQkO           ",
"               3C757jAT^^^^~^^R:cEpIkO            ",
"              Xc^WZ:7amBBBBVVVM3Y~k>O             ",
"              &A^~^k$=,,<<<<,,,=kUAo              ",
"              &S~~Q8<qgbbbbnbbnw7Al               ",
"              &BYWD@@&&*&&$$$*$#sN-               ",
"               -uj6;28ddddddii8:By                ",
"                ...@@>i8ddid>&*O5O                ",
"                   .@*;O84&463. .                 ",
"                    @*;m:-u@B7                    ",
"                    OuDY::BCU:                    ",
"                     yB2Xo:BA&                    ",
"                     $O    O&                     ",
"                                                  ",
"                                                  ",
"                                                  "
};
