/* XPM */
static char *_a5939c606b94bd1b592aae6781957d5YmS6IqjGPM62KOhO[] = {
/* columns rows colors chars-per-pixel */
"54 50 247 2 ",
"   c None",
".  c #605651",
"X  c #615651",
"o  c #605652",
"O  c #625752",
"+  c #645954",
"@  c #6A5E58",
"#  c #74665F",
"$  c #74675F",
"%  c #75675F",
"&  c #7D6958",
"*  c #716560",
"=  c #706561",
"-  c #706660",
";  c #726660",
":  c #736760",
">  c #726661",
",  c #736761",
"<  c #756760",
"1  c #746761",
"2  c #7D6760",
"3  c #736861",
"4  c #756860",
"5  c #746861",
"6  c #756861",
"7  c #766861",
"8  c #766961",
"9  c #776961",
"0  c #746C66",
"q  c #786861",
"w  c #796861",
"e  c #7B6861",
"r  c #796A61",
"t  c #796B61",
"y  c #7A6B61",
"u  c #7C6861",
"i  c #7D6C60",
"p  c #7F6E61",
"a  c #746D68",
"s  c #746E69",
"d  c #74736F",
"f  c #896862",
"g  c #837061",
"h  c #857466",
"j  c #897360",
"k  c #897361",
"l  c #887463",
"z  c #8E7660",
"x  c #8E7661",
"c  c #907761",
"v  c #987C61",
"b  c #9C7E61",
"n  c #997472",
"m  c #A96762",
"M  c #D96765",
"N  c #DE6665",
"B  c #D46A69",
"V  c #E06665",
"C  c #F06665",
"Z  c #FC6767",
"A  c #FF6666",
"S  c #FA696A",
"D  c #A48260",
"F  c #A58360",
"G  c #A58361",
"H  c #A28567",
"J  c #A88663",
"K  c #AA8762",
"L  c #AD8C68",
"P  c #B08960",
"I  c #B08A61",
"U  c #B58C60",
"Y  c #B78E60",
"T  c #B58E63",
"R  c #A78D72",
"E  c #AD9274",
"W  c #C19869",
"Q  c #D3A064",
"!  c #D5A165",
"~  c #DBA86D",
"^  c #C3A27C",
"/  c #E1A560",
"(  c #E1A763",
")  c #E6AB65",
"_  c #EEAF63",
"`  c #E9AD66",
"'  c #F1AF60",
"]  c #FAB460",
"[  c #F8B463",
"{  c #FEB660",
"}  c #FFB660",
"|  c #FFB760",
" . c #FEB761",
".. c #FCBD6F",
"X. c #F0B875",
"o. c #F9BB71",
"O. c #FABF75",
"+. c #FFC074",
"@. c #FFC176",
"#. c #FFC177",
"$. c #FEC178",
"%. c #FBC37E",
"&. c #FDC37E",
"*. c #FEC57F",
"=. c #738180",
"-. c #71898B",
";. c #6D969D",
":. c #6F9EA5",
">. c #6EA8B1",
",. c #6CAEBB",
"<. c #6CB3C0",
"1. c #6CB8C6",
"2. c #6CBAC9",
"3. c #76BCCC",
"4. c #32C2DF",
"5. c #37C2DD",
"6. c #35C2DE",
"7. c #00CDFF",
"8. c #02CDFF",
"9. c #04CEFF",
"0. c #0ACFFF",
"q. c #1ED4FF",
"w. c #34C3E0",
"e. c #39C4E1",
"r. c #22D4FF",
"t. c #2FD4FB",
"y. c #29D5FF",
"u. c #2DD4FD",
"i. c #56C8DC",
"p. c #6BC6CB",
"a. c #6EC5C8",
"s. c #6BC3D5",
"d. c #6ACBDE",
"f. c #7CCFD6",
"g. c #75CED8",
"h. c #75D0DC",
"j. c #41C6E1",
"k. c #5BCEE5",
"l. c #4DDDFF",
"z. c #59DCFB",
"x. c #62D1E7",
"c. c #66D1E7",
"v. c #67D1E7",
"b. c #6BD1E5",
"n. c #69D2E7",
"m. c #6CD0E5",
"M. c #68D2E8",
"N. c #69D3E8",
"B. c #68D3E9",
"V. c #69D3E9",
"C. c #6AD3E8",
"Z. c #69D4E9",
"A. c #8B8B8B",
"S. c #8F8E8D",
"D. c #BB99A3",
"F. c #A5A4A4",
"G. c gray66",
"H. c #AAA9A8",
"J. c #ACACAD",
"K. c #A0A8B5",
"L. c gray",
"P. c #DEB584",
"I. c #9DC6B4",
"U. c #D1C69A",
"Y. c #F8C381",
"T. c #FFC780",
"R. c #FFC881",
"E. c #FFC883",
"W. c #FDC885",
"Q. c #FEC884",
"!. c #FEC985",
"~. c #FFCA87",
"^. c #F0C38B",
"/. c #FAC78B",
"(. c #FCC988",
"). c #FFCC8A",
"_. c #FCCD8F",
"`. c #FFCD8E",
"'. c #FFCD8F",
"]. c #FFCE8E",
"[. c #FECE8F",
"{. c #FFCE8F",
"}. c #FFCF8F",
"|. c #E3CC9A",
" X c #ECCE99",
".X c #ECCE9A",
"XX c #EACF9D",
"oX c #F0CD96",
"OX c #F5CE95",
"+X c #F9CD91",
"@X c #F9CE92",
"#X c #FECE90",
"$X c #FFCE90",
"%X c #FFCF90",
"&X c #FECE91",
"*X c #FFCF92",
"=X c #FECF93",
"-X c #FED094",
";X c #FFD194",
":X c #FFD195",
">X c #FFD297",
",X c #FFD298",
"<X c #FFD49B",
"1X c #FED59F",
"2X c #EDD7AD",
"3X c #FBD8A7",
"4X c #FFD8A5",
"5X c #F6D7A8",
"6X c #FFD9A8",
"7X c #FFDAAA",
"8X c #FFDDAF",
"9X c #EBD9B1",
"0X c #FADDB3",
"qX c #FAE1BD",
"wX c #80CFD4",
"eX c #B7DBCE",
"rX c #99E9FC",
"tX c #AEE5E8",
"yX c #BCE6E5",
"uX c #BFEAEB",
"iX c #A6E9F5",
"pX c #B1EAF2",
"aX c #B8ECF5",
"sX c #C3C2C2",
"dX c #C8C8C8",
"fX c #CBCBCB",
"gX c #C5DCC9",
"hX c #C4DFD2",
"jX c #EDDCC8",
"kX c #EEE0C1",
"lX c #E9E2C7",
"zX c #E7E4CD",
"xX c #F3E2C3",
"cX c #FBE3C0",
"vX c #ECE7D1",
"bX c #ECE8D4",
"nX c #E9E4DD",
"mX c #E3EBDF",
"MX c #FFECD5",
"NX c #DCEBE2",
"BX c #E0E1E1",
"VX c #E4E4E4",
"CX c #E6E6E7",
"ZX c #E5EDE1",
"AX c #FFFAF3",
"SX c #FFFBF6",
"DX c white",
/* pixels */
"                                                                                                            ",
"                                                                                                            ",
"                                                                                                            ",
"                                    6 e 6                                                                   ",
"                                6 6 6 6 6 6                                                                 ",
"                                6 6 6 6 6 6                                                                 ",
"                              6 6 6 6 6 6 6                                                                 ",
"                    Z Z Z     6 6 6 6 6 6 6                                                                 ",
"                S Z Z Z Z     6 6 6 6 6 6 6                                                                 ",
"        n.n.m.D.Z C V N N     6 6 6 6 6 6 6                                                                 ",
"      n.n.N.K.B m f % 2 e e 6 6 6 6 6 6 6 6                                                                 ",
"    n.n.B.3.n 2 6 6 6 6 6 6 6 6 6 6 6 6 6 6 6 6 6 6                                                         ",
"    n.N.s.=.< 6 6 6 6 6 6 6 6 6 6 6 6 6 6 6 6 6 6 6                                                         ",
"    N.d.-.% 6 6 6 6 6 6 6 6 6 6 6 6 6 6 6 6 6 6 6 6 6                                                       ",
"    n.:.6 6 6 6 6 6 6 6 6 6 6 6 6 6 6 6 6 6 6 6 6 6                                                         ",
"    <.d < 6 6 6 6 6 6 6 6 6 6 6 6 6 6 6 6 6 6 6 6                                                           ",
"    s 6 6 6 6 6 6 6 6 6 6 6 6 6 6 6 6 6 6 6 6                                                               ",
"    6 6 6 6 6 6 6 6 6 6 6 6 6 6 6 6 6 6 6 6 6                                                               ",
"    6 6 6 6 6 6 6 t 6 6 6 6 6 6 6 6 6 6 6 6 6 6                                                             ",
"    6 6 6 6 6 6 6 U x , 6 6 < , v g , 6 6 6 6 6                                                             ",
"    6 6 6 6 6 6 l _ ( x , < 6 , L ! j , 3 6 6 6                                                             ",
"      3 6 6 3 6 W R.R.` D e , , E R.) D & 6 6 6                                                             ",
"      I e 3 g U Y.<X7X:Xo.Q K H P.:X).$.~ l                                                                 ",
"    } ] D , I ..-XbXrXpX3X~.Q.(.4XZXNX0X-X                                                                  ",
"    }  .U , v %.:XyX9.u.9X].#X#XxXl.q.hX-X                                                                  ",
"    } } / x U ~.,XtX8.t.2X].#X#XlXy.8.eX].                                                                  ",
"      }  .' [ ~.,XuXr.z.5X].#X].zXy.0.gX].                                                                  ",
"             .%.#XcXmXbX,X#X#X#XqXaXiXkX                                                                    ",
"                @X XXX XoXOX@X#X:X4X8X                                                                      ",
"                5.i.g.g.f.wXp.                                                                              ",
"              6.4.j.c.N.N.x.e.                                                                              ",
"            |.a.w.k.n.n.n.c.j.                                                                              ",
"            ].    N.N.n.n.n.I.                                                                              ",
"            #X    n.Z.Z.N.N.U.+.$.                                                                          ",
"            ].].  ;.>.1.2.,.  +.$.$.                                                                        ",
"            #X-X^.% < 0 s ,     $.$.                                                                        ",
"                  6 6 < @ + .                                                                               ",
"                , , <   . o .                                                                               ",
"                ^ R h     & J                                                                               ",
"                ].@X      X.$.+.                                                                            ",
"                <X=X        &./.                                                                            ",
"              SXSXMX        jXnX                                                                            ",
"              G.BXDX        CXJ.S.                                                                          ",
"            CXdXF.          H.A.sXdX                                                                        ",
"                              sX                                                                            ",
"                                                                                                            ",
"                                                                                                            ",
"                                                                                                            ",
"                                                                                                            ",
"                                                                                                            "
};
