/* XPM */
static char *_ee126a36d9d48e2987a7c375612f76cfzEcejJMR4Ft6Oa4[] = {
/* columns rows colors chars-per-pixel */
"50 50 186 2 ",
"   c #2D2A26",
".  c #24232B",
"X  c #2E2D2A",
"o  c #322D2D",
"O  c #313123",
"+  c #373C25",
"@  c #383C21",
"#  c #35332D",
"$  c #38332F",
"%  c #3B3D2B",
"&  c #2E2F33",
"*  c #312F32",
"=  c #353333",
"-  c #3A3634",
";  c #3C3B35",
":  c #35353B",
">  c #39363A",
",  c #36383B",
"<  c #3C3B3B",
"1  c #413E3D",
"2  c #3C4C0E",
"3  c #3E5503",
"4  c #3E5209",
"5  c #3F4C17",
"6  c #3C421F",
"7  c #3E4A1C",
"8  c #3E5014",
"9  c #3D4423",
"0  c #3E4921",
"q  c #3D432C",
"w  c #3E4829",
"e  c #3D4233",
"r  c #3F4B33",
"t  c #3F413A",
"y  c #435704",
"u  c #435C04",
"i  c #42550C",
"p  c #455B0C",
"a  c #495D0C",
"s  c #414E15",
"d  c #424C1B",
"f  c #445414",
"g  c #465914",
"h  c #4B5D15",
"j  c #45531B",
"k  c #49561D",
"l  c #47591B",
"z  c #4C5D1B",
"x  c #505E1C",
"c  c #466203",
"v  c #4A6404",
"b  c #4E6A02",
"n  c #47610A",
"m  c #4B630C",
"M  c #4D680C",
"N  c #506B04",
"B  c #53670D",
"V  c #526A0C",
"C  c #4D6213",
"Z  c #4D611B",
"A  c #536614",
"S  c #526A13",
"D  c #52641B",
"F  c #576A19",
"G  c #414626",
"H  c #434C24",
"J  c #484F23",
"K  c #42452D",
"L  c #444B2C",
"P  c #455223",
"I  c #4A5523",
"U  c #4C5B22",
"Y  c #46522A",
"T  c #4A542C",
"R  c #4D5B2A",
"E  c #505724",
"W  c #515D24",
"Q  c #525C2B",
"!  c #424434",
"~  c #444B33",
"^  c #494C35",
"/  c #42433C",
"(  c #464C3B",
")  c #4A4E3C",
"_  c #455032",
"`  c #4B5433",
"'  c #4E5B32",
"]  c #445038",
"[  c #4D533D",
"{  c #4D583E",
"}  c #525E33",
"|  c #52553D",
" . c #525E3B",
".. c #4F6222",
"X. c #526223",
"o. c #566A25",
"O. c #54612B",
"+. c #58672E",
"@. c #566B2A",
"#. c #5B6C2D",
"$. c #576533",
"%. c #5B6B31",
"&. c #556038",
"*. c #5B633E",
"=. c #59683D",
"-. c #606C3C",
";. c #333441",
":. c #363942",
">. c #3C3C43",
",. c #39374C",
"<. c #363C48",
"1. c #3B3D4A",
"2. c #3E3E51",
"3. c #423E43",
"4. c #3E4243",
"5. c #3D424B",
"6. c #434344",
"7. c #494746",
"8. c #464B43",
"9. c #494D44",
"0. c #44444B",
"q. c #49464C",
"w. c #46494C",
"e. c #4B4B4D",
"r. c #4C5444",
"t. c #4F5846",
"y. c #4D524D",
"u. c #4E5948",
"i. c #505445",
"p. c #525B44",
"a. c #51564E",
"s. c #555C4C",
"d. c #5A5C49",
"f. c #444553",
"g. c #4A4751",
"h. c #464954",
"j. c #4C4C53",
"k. c #474B59",
"l. c #4B4D5A",
"z. c #514F54",
"x. c #504F5D",
"c. c #4D5154",
"v. c #4E525C",
"b. c #535354",
"n. c #595556",
"m. c #555953",
"M. c #595B55",
"N. c #52545D",
"B. c #58575D",
"V. c #555A5D",
"C. c #5B5B5C",
"Z. c #566141",
"A. c #5A6443",
"S. c #576149",
"D. c #5A6349",
"F. c #576252",
"G. c #5B6354",
"H. c #5C615D",
"J. c #61625E",
"K. c #62685E",
"L. c #4C4E61",
"P. c #4E5261",
"I. c #535562",
"U. c #585765",
"Y. c #555964",
"T. c #5B5D64",
"R. c #555769",
"E. c #585769",
"W. c #575A6A",
"Q. c #5A5E6A",
"!. c #5C5D72",
"~. c #615F61",
"^. c #605F6D",
"/. c #5D6163",
"(. c #5D616B",
"). c #5E6271",
"_. c #626264",
"`. c #636864",
"'. c #6A6C61",
"]. c #61636D",
"[. c #68676D",
"{. c #626572",
"}. c #646974",
"|. c #696B77",
" X c #656779",
".X c #65697B",
/* pixels */
"B.b.^ V } (.(.Q.(.W.Y.Y.P.k.t w.l.v.v.P.Y.Q.Q.Q.I.v.u.4.X = e.e.z.a.b.b.M.~.~.T._.J.~.~.e.# = e.n.b.",
"b.g.T v R ]./.T.(.(.W.(.Y.v., , 0.5.1.>., > = = = # 3 5 I H q.e.e.z.z.z.B.B.J.~.~.T.~.H.e.# % 6.b.B.",
"z.[ h l y.(.Q.(.(.(.(.W.(.P.8 9 * X ; 1 = < 6.q.w.m.S.$.b d 0.e.e.a.j.e.b.b.M.T.T.~.C.H.z.% u G b.z.",
"q.} b j g.(.(.(.W./.(.Y.(.v._ Y j.N.B.U.Q.Q.(.{.|.{..XG.g J 7.e.e.e.e.b.j.b.z.B.C.C.M.C.M.I g ! q.e.",
"e./ J p ) Q.(.(.W.(.(.Y.(.R.^ Z l.Y.Y.I.Y.I.Q.^.(.(.]./.X.p ^ w.e.e.e.e.b.e.b.j.C.M.B.n.M.V u K 7.w.",
"q.< K f ) Q.(.(.(.(.(.(.W.H.v A e.I.Y.I.Y.Y.T.Q.(.(.)./.D n ^ 0.6.e.e.w.e.e.e.b.b.B.C.n.B.` j ; 3.e.",
"> 7 y L q.T./.(.(.(./.(.Q.Y.R I q.v.I.Y.Y.Y.(.(.(./.(.D.f A ( 0.6.6.e.e.e.e.j.e.e.q.6.>.9.! 4 d ; > ",
"= K k c R (.(.(.(.W.W.(./.W.~ 2 9.P.Y.Y.Y.T.(.Q.(.Q.(.A.u m q = = & = < >.< >.>.= 6 d 0 M D d g p # ",
"b.g.T A  .{.^.Q.(.(.).Q.Q.Q.Q p >.P.R.Y.W.!.Q.Q.(.W.W.I.R Q > $ = #   O   X 0 7 g C V A v V 9.V.S.l.",
"{.Q.q.E ' Y.T.F.I.B.S.{ b.c.C M I [ ` 7.8.t 0.0.5.( ` / 6.6.c.v.N., >.I.l.x.s.m z 9.u.r.S D T.|.{.{.",
"(.(.I.) j g C a h a M c g g g z M v b d 5 f p h j p N z 4.W.(.B.Y.6.w.{.Q.P.z.d / P.U.T.S M V.].(.(.",
"(./.!.p.m O.O.a l V O.I X.v C v W ]  .9.3.[ S T w.r. .w.Y.Y.B.N.N.6.e.T.T.N.l.< >.l.I.l.Y Q Y.]./.T.",
"(.(.!.r.7 I.Q./.Q._.!.(./.G.D.#.C.W.W.Y.(.$.p ~ f.k.l.l.V.b.I.N.v.>.7.Y.T.N.l.# , j.v.k.= >.Y.^.Q.Q.",
"(.(.W.' 6 P.].Q.{.).].{.].{.{.W.Q.Y.N.v.N.O.c Y 5.h.g.N.N.v.v.v.l.>.>.Q.Y.N.l.1 >.k.v.v.& - Y.Q.Q.].",
"(.Q.T., o N.(.(.Q.].].(.].(.T.N.I.N.I.v.l.w.h ~ f.2.j.N.z.l.v.l.v.r ~ I.T.P.j.6.>.5.h.k.= > N.(.(.(.",
"(.(.W.=   N.(.(.(.(.Q.(.(.Y.I.I.I.I.P.v.v.Z D < 1.f.l.l.v.v.c.v.c.C l P.T.N.k.! t 1.5.5.* 3.I.Q.(.Q.",
"(.(.P.; j v.(.(.(.(.(.(.W.Y.Y.I.v.N.v.I.c.m z <.5.f.j.k.v.k.k.h.5.! U k.v.P.c.M k <.1.5.= 3.I.Y.Q.T.",
"Y.(.R.P U L.W.Q.Q.W.W.Y.N.l.P.P.v.P.l.v.l./ I w <.1.1.6._ Y = & = 5 H ~ P >.~ V C , ;.& > 6.x.I.N.Y.",
"v.Y.P...a P K L C U q U D j d ; < , , : = > D H & * j g M c P z z 4 d m n R k D Z e :., / 6.l.v.P.v.",
"P.v.v...m Z ..Z S Z Y z M ` R Y > - < 3.3.; ; ; / 7.[ d.*.} Y v g ) N.m.G.(./.].].{.].}.N.= l.l.v.v.",
"v.N.k.r 3 [ P.V.V.Y.W.v.j.k.k.0.# B.}.].}.B.; 1 b.C.~.T.].~.( z u.W.Y.Y.Q.].{.(.Q.(.(./.Y.= w.v.v.v.",
"v.P.j.e g t.v.N.v.Z.$.w.1.>.,.w 2 C.|.].{.T.< / b.T.n.C.C.C.I B u.L.P.I.B.].(.T.^.T.T.(.Y.6.>.l.P.v.",
"f.k.8.M p Z I Y P v b U 9 P 7 p 8 V.{.].].T.< ; b.n.M.B.C.B.P z y.v.v.N.I.R.(.(.(.(.(.(.(.f.; ) y.j.",
"z G Z S h V m v p m V x m M B ` N.(.(.].].Y.3.- c.b.b.n.C.M.h h j.v.P.v.v.u.P.W.Y.H.T.S.%.y.I v P P ",
"m D N c m m D m m Q | | m b $. X{.[.].(.(.Q.>.- e.M.b.M.T.d.a a ~ 1.~ / U m k C Y ..n n v D x a g 4 ",
"X.r.O.} +.+.b.d.-.n.b.n.` I M.].].].].(.T.(.3.o q.B.n.n.T.q.d g f % y d } a I V W ..n h V B v L >.' ",
"'.[._.C.T.C.C.B.b.b.e.z.1 * N.].(.].(.(.(.T.9.^ 6.b.b.z.n.1 f R e.j.S.M.Y.C.T./.W.T.A.A u F #.J._._.",
"T.C.~.C.C.C.b.n.b.z.b.z./ = j.^.(.].{.(.(.(.r.h 6.z.e.a.z.x v b.Y.W.).).(.{.].Q.(.(.M.Z N *._.~.T.C.",
"~.C.T.C.C.M.n.B.b.a.z.e.6.$ w.).].(.(.(.(.).7.l 1 q.e.e.>.h F b.P.(.(.`.(.(.(.(.(.Q.=.b h M.~.~.C._.",
"~.~.M.C.C.n.B.b.b.b.e.e.e.= >.T.(.(.(.(.(.W.' C 1 w.e.0.; M D R.Y.Y.(.(.(.(.(.(.T.(.M.z J n.T.T.~.C.",
"M.T.H.C.M.b.b.b.e.b.e.e.7.; t v.v.I.Y.V.U.I.0.P G 6.e.6.q M p.Y.V.P.W./.(.(.(.(.W.(.R.P i s.~.T.C.M.",
"~.~./.B.B.b.b.z.z.z.e.9.w./ l v.v.v.v.v.v.v.7.m T 6.6.: 9 T I.I.Y.v.Y.(.(.(.Q.W.(.(.Z.C d b._.~.C.T.",
"b.e.z.z.b.b.b.z.e.e.e.e.q.~ h j.P.P.P.P.L.P.[ N T 3.3.% 5 e.P.Y.P.I.v.Q.(.Q.T.Q.Q.Q.#.b H e.~.B.b.b.",
"O % % # 3.j.0.q.q.6.q.3.6.z N U / e.r.0. .t ;.Y z t >.7 p y.Y.v.V.P.v.v.(.Q.Q.(.W.Y.e.^ C L R k = o ",
"@ p y d 9 G d j s O   6 5 N x i 2 n m 9 b C j I c f x j r.P.Y.v.I.P.v.l.l.P.l.f._ C L I C D M u O   ",
"h.c. .Z v h } p.X.) q.} ` o.s.m.m.' $.m.' I Y R M j A c r.R.v.l.f.0.: , ~ w 7 d l M R P M Z ` ) 4.6.",
"I.I.W.[ a  .!.W.W.Q.(.^.).{.{.}.}.}.}..XK.v j j.y.r./ I r.( 4.k q = o # T U l S.V.H.!.r.A D 9.l.v.v.",
"B.Y.P.Y u  .Q.N.I.I.I.I.I.].].].(.(.(.(.(.R p ] l.l.f.` M p i R e.b.T.T.W.(.).).).(.Q.O.c b i.L.l.v.",
"Y.T.b.P k m.Y.I.I.T.U.I.W.].].^.(.(.(.Q.(.w.i H l.v.k.6.Z j b.Y.W.T.Q.(.Q.T.T.Q.R.Y.Y.u.D F 9.j.v.V.",
"B.W.c.p d b.N.v.I.Y.Y.I.].(.(.(.(.(.(.Q.(.r.d t l.b.j.w f l.P.v.N.l.v.W.Q.Q.Q.(.W./.W.P.z M { f.c.v.",
"l.I.r.d k v.v.I.I.B.Y.W.(.].(.{.(.(.(.W.(.c.j 4 y.P.5.e G N.v.P.I.B.I.I.Q.(.Q.Q./.Q.Y.P.] C ( h.k.h.",
"l.v.X.h ) I.v.I.I.Y.Y.(.].Q.(.(.(.(.W./.(.R.t 0 w.v.5.;.> g.v.v.v.I.I.v.Y.(.(.T.R.(.(.c.l r 2.f.0.j.",
"l.p.M u ' I.I.I.I.I.Y.(.(.(.(.W./.W.W.Q.(.Y.1.= 5.k.g.: # q.I.l.I.N.Y.Y.I.Y.T.(.(.Q./.V.z w <.h.h.h.",
"l.g.W h ] l.v.N.I.I.(.(.(.(.(.(./.(.(.(.W.Y.' p r k.h.: # e.v.N.I.I.I.N.Y.I.I.(.(.W.Y.W.6.; :.f.h.g.",
"w.T k S a 4.1.< >.1.I.Q.(.(./.W.W.W.W.P.v.0.z v G f.0.;.= q.N.v.N.Y.I.I.I.N.I.W.(.(.Q.(.h.= >.0.k.h.",
"; m B A h / ; 1 - = :.>., 1.>.t ~ t w e p 5 j k g X . # h Y l.x.v.I.I.I.N.N.N.j.N.R.Y.Y.0.1 : <., = ",
"< ^ Q D ` b.b.I.B.w.=   # $ = 9 S L j h T R i ^ D / >.q V h ( ` ( T ` 1.>.1.1.>.t ! / ; s e > # o $ ",
"n.M.X.c ..`.).Q.).T.B.N.V.j.- N.M.T.Q.T.Q.Q._.(.Q.}.}.r.d j h b a v a 7 % > H U m u C u d # = ; 7.e.",
"C.C.Q M [ {.Q.W.W./.Q.R.P.P.< v.v.N.(.(.(.{.(.(.(./.).@.c 7 ) X.Y | ) ~ ! 1 I Q X.x W h I j ; M.T.C.",
"M.n.` v  .{.].Q.T.T.Q.v.k.v.t h.v.v.v.Y.Q.(.(./.Q.(.Q.t.l K j.b.z.b.B.U.~.n.T.^.J.~.~.`.e.# - n.C.M."
};
