/* XPM */
static char *bf07ecbe42a341a3c47c1ef2ebf47ff9FwvNfb3KsVGbod92[] = {
/* columns rows colors chars-per-pixel */
"50 50 184 2 ",
"   c None",
".  c black",
"X  c #010000",
"o  c #030100",
"O  c #030201",
"+  c #040101",
"@  c #050201",
"#  c #060201",
"$  c #070201",
"%  c #040202",
"&  c #050302",
"*  c #060403",
"=  c #070403",
"-  c #090301",
";  c #0A0301",
":  c #0B0401",
">  c #0B0402",
",  c #0C0402",
"<  c #0E0502",
"1  c #0F0603",
"2  c #090504",
"3  c #0A0504",
"4  c #0B0604",
"5  c #0B0605",
"6  c #0C0605",
"7  c #0E0806",
"8  c #0F0907",
"9  c #100502",
"0  c #120602",
"q  c #130602",
"w  c #120703",
"e  c #130703",
"r  c #140703",
"t  c #110A07",
"y  c #160804",
"u  c #1C0A04",
"i  c #120A08",
"p  c #130A08",
"a  c #120B08",
"s  c #130B08",
"d  c #140B08",
"f  c #160C09",
"g  c #1C0F0B",
"h  c #220D06",
"j  c #270F07",
"k  c #2C0F06",
"l  c #22130E",
"z  c #321207",
"x  c #331308",
"c  c #371409",
"v  c #281610",
"b  c #2C1812",
"n  c #321C14",
"m  c #331C15",
"M  c #371E16",
"N  c #371F17",
"B  c #411609",
"V  c #41180B",
"C  c #42180B",
"Z  c #43180B",
"A  c #43190B",
"S  c #46180A",
"D  c #4F1B0B",
"F  c #521C0C",
"G  c #541D0C",
"H  c #551D0C",
"J  c #561D0C",
"K  c #561E0C",
"L  c #5A200E",
"P  c #40231A",
"I  c #41231A",
"U  c #40241B",
"Y  c #41241B",
"T  c #42241A",
"R  c #43241A",
"E  c #43241B",
"W  c #44251B",
"Q  c #42251C",
"!  c #43251C",
"~  c #46261C",
"^  c #6E260F",
"/  c #752911",
"(  c #7D2C13",
")  c #7E2C12",
"_  c #4F2B20",
"`  c #522C21",
"'  c #522D21",
"]  c #542E21",
"[  c #542E22",
"{  c #552E22",
"}  c #562F22",
"|  c #6E3C2C",
" . c #75402F",
".. c #7D4533",
"X. c #802C12",
"o. c #832D12",
"O. c #842D12",
"+. c #852D12",
"@. c #862E12",
"#. c #872E12",
"$. c #923315",
"%. c #963415",
"&. c #973516",
"*. c #983516",
"=. c #993516",
"-. c #9A3516",
";. c #9A3616",
":. c #A33817",
">. c #AF3D18",
",. c #BE411A",
"<. c #804633",
"1. c #834734",
"2. c #844834",
"3. c #854835",
"4. c #864835",
"5. c #874935",
"6. c #93503B",
"7. c #96523C",
"8. c #97533D",
"9. c #98533D",
"0. c #99543E",
"q. c #9A543E",
"w. c #C3421A",
"e. c #C4431A",
"r. c #C5431A",
"t. c #C7441A",
"y. c #C8441B",
"u. c #CC461C",
"i. c #D1471C",
"p. c #D1481D",
"a. c #D3481C",
"s. c #D3491D",
"d. c #D3491E",
"f. c #D4481C",
"g. c #D6491C",
"h. c #D7491D",
"j. c #D54A1E",
"k. c #D64A1E",
"l. c #D74A1E",
"z. c #F45422",
"x. c #F75522",
"c. c #F95622",
"v. c #FA5622",
"b. c #FB5622",
"n. c #FD5622",
"m. c #FF5722",
"M. c #FF5822",
"N. c #FF5823",
"B. c #FF5923",
"V. c #FF5A23",
"C. c #A35941",
"Z. c #AF6047",
"A. c #BE674C",
"S. c #C3694D",
"D. c #C46A4E",
"F. c #C56A4E",
"G. c #C76B4F",
"H. c #C86C4F",
"J. c #CC6F52",
"K. c #CC7052",
"L. c #D17254",
"P. c #D37354",
"I. c #D37355",
"U. c #D57455",
"Y. c #D67556",
"T. c #D77556",
"R. c #EF825F",
"E. c #F58461",
"W. c #F48561",
"Q. c #F78662",
"!. c #F78663",
"~. c #F98763",
"^. c #FA8763",
"/. c #FA8863",
"(. c #FB8863",
"). c #FA8864",
"_. c #FD8964",
"`. c #FF8A65",
"'. c #FF8B65",
"]. c #FF8B66",
"[. c #FF8C66",
"{. c #FF8C67",
"}. c #FF8D67",
"|. c #FF8E68",
/* pixels */
"                                                                                                    ",
"                                                                                                    ",
"                                                                                                    ",
"                                                                                                    ",
"                                                                                                    ",
"                                                                                                    ",
"                                                                                                    ",
". . . . . . . . . . . . . . . . . . . . . . . . . . . . . . . . . . . . . . . . . . . . . . . . . . ",
". % I } } } ` } ` } ` } } } ` t . z K K K F K K K K K K F K F K z . f ` ` } } } ` } } } ` } } I % . ",
". 5 S.]._._._._.].(.~.]._._.E.I . &.n.n.n.n.n.n.n.n.n.n.n.n.n.M.&.. E Q._._._.(.]._.(._.]._.].S.5 . ",
". 6 F.[.]._.]._._.].].]._.].Q.E . =.V.n.n.n.M.n.n.n.M.n.n.M.n.M.=.. E Q.].]._.].]._.]._.]._.].F.6 . ",
". 5 F.[._.]._.].]._.]._.]._.Q.E . &.V.M.n.M.n.M.n.M.n.M.M.n.M.V.&.. E Q.]._.]._._.]._.]._.].].S.6 . ",
". 6 F.[.].].]._._.].]._.]._.Q.E . &.M.M.M.n.M.n.n.M.n.M.n.M.n.V.&.. E Q.]._.].].]._.]._.].].].F.6 . ",
". 6 F.|._.].].].]._.].]._.].Q.I . =.V.n.n.n.n.M.M.n.M.n.M.n.n.V.=.. E Q._.]._.]._.]._.].].].].F.6 . ",
". 6 A.).~.Q.Q.Q.~.~.Q.Q.~.Q.R.P . $.c.c.x.x.x.x.c.x.x.x.x.x.c.c.$.. I R.~.Q.Q.Q.Q.Q.~.Q.~.Q.).A.5 . ",
". . m W I E Q Q I I E Q I E Q t . j Z C C C C C C C Z Z Z Z Z Z j . t I Q I Q Q Q Q E I Q Q Q n . . ",
". . . . . . . . . . . . . . . . . . . . . . . . . . . . . . . . . . . . . . . . . . . . . . . . . . ",
". - / =.&.=.D . n 8.9.8.8.8.8.8.8.8.8.8.8.8.0...5 > ) =.=.&.&.&.&.&.&.&.&.&.&.=.&.z . _ 0.8.q. .= . ",
". 1 y.V.V.V.@.. } ].].{.|.{.{.{.].].|.].{.{.|.T.s e h.M.V.V.V.V.V.V.V.M.V.V.V.V.M.K . 2.|.[.|.J.6 . ",
". - r.n.n.V.@.. ` ].`.].].].`.`.].].].].`.].{.P.s e i.n.n.M.n.n.n.M.n.M.n.n.n.n.n.K . 2.].].].S.6 . ",
". - r.n.n.V.@.. } _.].].`.`.`.`.].].`.`.`.`.{.U.t e d.M.n.n.M.n.M.n.M.n.M.n.M.n.n.K . 2.[.].[.F.6 . ",
". 1 r.M.n.V.@.. ` ].]._.`.`.`.`.].(.`.].`.`.{.T.t e i.M.n.M.n.M.n.M.n.M.n.M.n.n.n.F . 2.].].[.S.6 . ",
". 1 t.V.M.M.@.. } ].].].{.`.].{.].].].].].].{.T.d r h.V.M.M.M.M.M.M.M.M.M.M.V.n.n.K . 2.|.].[.G.6 . ",
". - :.h.d.h.^ . E P.P.P.P.P.P.P.P.P.P.P.P.P.U.C.7 e >.h.d.d.d.d.d.d.d.d.d.d.d.d.d.S . | T.P.T.C.5 . ",
". . 1 r e e - . % s i p p p s s t t d t d t t t . . 1 e e e e e e e r e e e w w w % . 5 s s f 7 . . ",
". . 6 s s s s d s i p p i d s % . 1 r t r r r t r r e e e e e e 1 . % s s s s s s s d s s s t 6 . . ",
". 5 C.T.P.P.P.P.P.P.P.U.U.P.J.M . ) h.d.d.d.d.d.d.d.d.d.d.d.d.h.) . m J.P.P.P.P.P.P.P.P.P.P.T.C.5 . ",
". 6 F.|.{.].].].].].].].].].~.E . =.M.M.M.n.M.M.M.M.M.M.M.M.M.M.=.. W ~.].].].].].{.].].].].[.F.6 . ",
". 6 F.[.].].`.`.].(.].].]._.Q.E . &.M.M.M.n.M.n.M.n.M.n.M.M.n.M.&.. E Q.`.`.`.`.].`.`.`.].].].F.6 . ",
". 6 S.].].].`.`.].].].(._.].Q.E . =.V.M.n.n.n.M.n.M.n.n.M.n.M.M.=.. E Q.`.`.`.`.].].`.`.(.].].F.6 . ",
". 6 F.].].].`.`.].].].].]._.Q.E . =.V.n.n.n.n.n.M.n.n.n.n.n.M.V.=.. I ~.`.`.].].].].`.`.].].[.F.6 . ",
". 6 G.|.].].].].[.[.].[.[.[.).W . =.V.V.V.V.V.V.V.V.V.V.V.V.V.V.=.. W ~.].].{.].].{.].].|.[.|.H.6 . ",
". =  .q.8.8.8.8.8.8.8.8.8.9.6.v . L =.&.&.&.=.&.&.&.&.&.&.&.&.=.L . v 6.q.8.8.8.8.8.9.9.8.8.q. .> . ",
". . . . . . . . . . . . . . . . . . . . . . . . . . . . . . . . . . . . . . . . . . . . . . . . . . ",
". . x Z C C h . f U Q Q Q Q Q Q Q Q Q E Q Q Q N % % c Z C C C C C C C C Z Z Z B Z t . l Q E Q m . . ",
". 1 ,.c.x.c.o.. ` Q.Q.Q.Q.Q.Q.Q.Q.Q.Q.E.Q.Q.~.K.t e u.c.x.x.x.c.x.x.x.c.x.x.x.c.z.F . <.).~.).A.5 . ",
". 1 r.M.n.M.@.. } (._.].].]._.].`.`.`.`.].].{.P.d r g.M.n.M.n.M.n.M.n.M.n.M.n.M.n.K . 2.[.].].F.6 . ",
". - r.M.n.V.@.. } (.]._.].].]._.`.`.`.`.`.].{.P.t e i.M.M.n.M.n.M.n.M.n.M.n.M.n.n.K . 2.[.].].F.6 . ",
". - r.M.n.N.@.. } (._.]._.]._.].`.`.`.`.`.`.].P.t r f.M.n.M.n.M.n.M.n.M.n.M.n.M.n.F . 2.].].[.S.6 . ",
". 1 r.n.M.V.o.. { `.]._.]._.]._.`.`.`.`.`.`.].P.d r a.n.M.n.M.n.M.n.M.n.M.n.M.n.n.K . 2.[.].[.F.6 . ",
". - r.n.n.n.o.. { ~.).].(.].(._.]._._.].(._.].P.t r i.n.n.n.n.n.n.n.n.n.n.n.n.n.c.K . 1.].].].S.6 . ",
". % B K K K k . g } } } } ` ` } ` } ` } } ` } W > % S K K F K K F K F K F K F K F u . b } } } P % . ",
". . . . . . . . . . . . . . . . . . . . . . . . . . . . . . . . . . . . . . . . . . . . . . . . . . ",
"                                                                                                    ",
"                                                                                                    ",
"                                                                                                    ",
"                                                                                                    ",
"                                                                                                    ",
"                                                                                                    ",
"                                                                                                    "
};
